<svg width="24" height="24" viewBox="0 0 24 24" fill="none" xmlns="http://www.w3.org/2000/svg">
<path d="M12 3C11.1716 3 10.5 3.67157 10.5 4.5V9.08073C10.5 9.24538 10.4189 9.39948 10.2833 9.49276L3.21674 14.351C3.08106 14.4443 3 14.5984 3 14.763V15.6798C3 15.8424 3.15285 15.9618 3.31063 15.9223L10.1362 14.216C10.321 14.1698 10.5 14.3095 10.5 14.5L10.6805 17.0271C10.6915 17.1811 10.6307 17.3316 10.5158 17.4348L7.66594 19.9939C7.56033 20.0887 7.5 20.2239 7.5 20.3659V20.6686C7.5 20.8347 7.65898 20.9546 7.81868 20.9089L10.8187 20.0518C10.926 20.0211 11 19.923 11 19.8114V19.5C11 19.3619 11.1935 19.3305 11.2372 19.4615L11.6715 20.7644C11.7184 20.9051 11.8517 21 12 21C12.1483 21 12.2816 20.9051 12.3285 20.7644L12.7628 19.4615C12.8065 19.3305 13 19.3619 13 19.5V19.8114C13 19.923 13.074 20.0211 13.1813 20.0518L16.1813 20.9089C16.341 20.9546 16.5 20.8347 16.5 20.6686V20.3659C16.5 20.2239 16.4397 20.0887 16.3341 19.9939L13.4842 17.4348C13.3693 17.3316 13.3085 17.1811 13.3195 17.0271L13.5 14.5C13.5 14.3095 13.679 14.1698 13.8638 14.216L20.6894 15.9223C20.8472 15.9618 21 15.8424 21 15.6798V14.763C21 14.5984 20.9189 14.4443 20.7833 14.351L13.7167 9.49276C13.5811 9.39948 13.5 9.24538 13.5 9.08073V4.5C13.5 3.67157 12.8284 3 12 3Z" fill="#030000"/>
</svg>
