<svg width="24" height="24" viewBox="0 0 24 24" fill="none" xmlns="http://www.w3.org/2000/svg">
<path fill-rule="evenodd" clip-rule="evenodd" d="M5 3.91668C5 3.39791 5.39608 2.96548 5.91323 2.92443C6.65552 2.86552 7.70603 2.78744 8.5 2.7497C11.2306 2.61989 12.7694 2.61989 15.5 2.7497C16.294 2.78744 17.3445 2.86552 18.0868 2.92443C18.6039 2.96548 19 3.39791 19 3.91668V7.49976C19 7.7759 19.2239 7.99976 19.5 7.99976C19.7761 7.99976 20 8.22362 20 8.49976V11.4998C20 11.7759 19.7761 11.9998 19.5 11.9998C19.2239 11.9998 19 12.2236 19 12.4998V17.573C19 17.6862 18.955 17.7947 18.875 17.8747C18.795 17.9547 18.75 18.0633 18.75 18.1765V20.4998C18.75 20.7759 18.5261 20.9998 18.25 20.9998H16.75C16.4739 20.9998 16.25 20.7759 16.25 20.4998V18.9998C16.25 18.7236 16.0261 18.4998 15.75 18.4998H8.25C7.97386 18.4998 7.75 18.7236 7.75 18.9998V20.4998C7.75 20.7759 7.52614 20.9998 7.25 20.9998H5.75C5.47386 20.9998 5.25 20.7759 5.25 20.4998V18.1765C5.25 18.0633 5.20504 17.9548 5.125 17.8748C5.04496 17.7947 5 17.6862 5 17.573V12.4998C5 12.2236 4.77614 11.9998 4.5 11.9998C4.22386 11.9998 4 11.7759 4 11.4998V8.49976C4 8.22362 4.22386 7.99976 4.5 7.99976C4.77614 7.99976 5 7.7759 5 7.49976V3.91668ZM6 7.80878C6 7.43709 6.39116 7.19534 6.72361 7.36156L6.89443 7.44697C6.96386 7.48169 7.04041 7.49976 7.11803 7.49976H16.882C16.9596 7.49976 17.0361 7.48169 17.1056 7.44697L17.2764 7.36156C17.6088 7.19534 18 7.43709 18 7.80878V11.4998C18 11.7759 17.7761 11.9998 17.5 11.9998H6.5C6.22386 11.9998 6 11.7759 6 11.4998V7.80878ZM18 6.2497C18 6.11163 17.8881 5.9997 17.75 5.9997H6.25C6.11193 5.9997 6 6.11163 6 6.2497C6 6.38777 6.11193 6.4997 6.25 6.4997H17.75C17.8881 6.4997 18 6.38777 18 6.2497ZM6.5 15.9997C6.22386 15.9997 6 16.2236 6 16.4997C6 16.7758 6.22386 16.9997 6.5 16.9997H7.5C7.77614 16.9997 8 16.7758 8 16.4997C8 16.2236 7.77614 15.9997 7.5 15.9997H6.5ZM16.5 16.9997C16.2239 16.9997 16 16.7758 16 16.4997C16 16.2236 16.2239 15.9997 16.5 15.9997H17.5C17.7761 15.9997 18 16.2236 18 16.4997C18 16.7758 17.7761 16.9997 17.5 16.9997H16.5Z" fill="#030000"/>
</svg>
